<svg xmlns="http://www.w3.org/2000/svg" viewBox="0 0 400 400" height="999" width="999"><g transform="matrix(2,0,0,2,0,0)"><g><path d="M71,44c-.08-.88,1.09-.46,1.07.71,0,1.6-1.37,1.59-2.23.83-.36-.32-.24-.76-.21-1.16,0,0,.2-.12.3-.12s.15.11.22.18A.51.51,0,0,0,71,44Z" fill="#d8e9ff"></path><path d="M77,50.67c.27-.24.12-.27.66.14a4.52,4.52,0,0,1-1.46,1.36c-.22.15-.36,0-.48-.15S75.52,52,77,50.67Z" fill="#d9d9d9"></path><path d="M76,49.51c.23-.2.25-.09.53.21a3.29,3.29,0,0,1-1.33,1.36c-.3.17-.36-.09-.48-.23S74.5,50.83,76,49.51Z" fill="#d9d9d9"></path><path d="M74.16,71.05a1.1,1.1,0,0,1,.42.24,8.19,8.19,0,0,1-4.36.43c-.46,0-.54.41-.14.66,2.89,1.82.12-.95,4.47,6.19-2,1.2-2,1.32-2.14,1,0,0-1.42-2.61-2.34-4.52-1.62-3.37-3.36-8.83-3.29-10C67.29,65.42,71.24,69.85,74.16,71.05Z" fill="#d9d9d9"></path><path d="M92.35,72.64a11.37,11.37,0,0,1-3.55,9c-.46.45-1.48,1.63-2,1.24-.81-.56-1.53,0-1.43-.43.17-.82-.75-.9-.15-1.31,1.88-1.27,2.14-1.3,3.18-3a11.28,11.28,0,0,0,.14-10.52c-2.83-5.92-12.44-14.39-11.8-14.88,2.39-1.87-.1-2.44,7.67,5.64C88.84,63.12,91.69,66.66,92.35,72.64Z" fill="#d9d9d9"></path><path d="M75.43,48.41c.22.36,0,.46-1.14,1.46-.26.23-.38.12-1.27-.68-.33-.3-2,.09-3.32-.23a4.27,4.27,0,0,1-1.29-8c.37-.19.38-.19.51.2.55,1.68.6,1.75.31,2-1.83,1.76.48,4.91,3.06,3.38,1-.62,1.45-4-.9-4.08-.49,0-.83-.17-.9-.74-.09-.88-.77-1.43,0-1.65,2.23-.59,5,1.17,5.2,4.3C75.14,47.06,74.83,47.4,75.43,48.41Z" fill="#d9d9d9"></path><path d="M115,71c.45.73,11.3,19.95,10.77,19.84-2.14-.47-2.38-1-4.71-2.77-.88-.68-2.17.39-1.87,2.12.87,5,7.8,2.43,3.18,8.51-.13.17-.78,0-1.24,0-1.23.13-.91,1.25-2.47,2.63a4.7,4.7,0,0,0-.82,3.59c.39,1.22,3.78-1-23.28,14.19-8.69,4.88-7.61,4.79-13.87,8-.73.37-.58,0-3.18-4.5C55.39,84.17,55.26,92.18,62.63,87.35c4.73-3.1,8.55-5.55,25.95-15.2.9-.5.18,5-2.23,7.17-.31.29-.1,0-.77-1-.28-.44-.74.22-.6.44.84,1.34-1.42,1.64-.71,3.21.21.47-.2,1.86,1.14,1.67a1.48,1.48,0,0,1,1.26.33c1,.8,6.16-3.36,6.56-10.71.14-2.49-.85-3.19,0-3.61,3.82-2,13.56-7.78,14.59-8.39C109.79,60.1,109.27,61.83,115,71Zm-1.37,14.64c1.43-.42.94-1.22.91-1.62a1,1,0,0,0-.9-.94c-1.31-.2-3.37-1.77-5.25-1.25-.7.2.19-.18,1-5,.22-1.38-2.22-1.68-2.52,0a20.59,20.59,0,0,1-1.06,4.31l-.21-.26c-1.64-2.84-1.27-2.63-2.64-2.51a.56.56,0,0,0-.53.48c-.23.81,0,1.33,1,3.14,3.29,5.92,3.53,7.65,5.33,6.4.44-.3.27-.74.3-1.1.05-.61-.18-.69-1.24-2.68-.16-.3,1.1-.49,1.8-.2C111.5,85.14,112.62,85.94,113.63,85.65ZM111.41,103c.76-.52.59-2.26-.5-2.19s-1.22.3-3.93,2.31c-.82.6-.48.94-2.28-1.3-.12-.15-.16-.27.09-.4.57-.29,3.51-2,3.69-3a1.84,1.84,0,0,0-.06-.47.86.86,0,0,0-1-.85c-1.62,0-4,3.19-4.6,2.39-.84-1.2-1.21-1.54-1-1.63a14.56,14.56,0,0,0,3-1.85c1.86-1.06,1.3-.8,1.29-1.72a1,1,0,0,0-1.24-.81A5.55,5.55,0,0,0,102.32,95c-1.9,1.15-2.72,1.37-2.94,2.68-.2,1.14.38,1.25,1,2.28a49.24,49.24,0,0,0,3.92,5.24C105.51,106.92,107.6,105.6,111.41,103Zm-13-10.51C101,94,105,91.83,105,89.8c0-2.89-2.34-1.52-2.36-1.32a2.16,2.16,0,0,1-3,1.43,4,4,0,0,1-2.21-4.51c.21-.67.39-.26,1-.4,1.14-.24.94-1.61.45-2.13C95.54,79.37,91.82,88.69,98.38,92.47Zm4.2,15.14c.1-1.39-.35-1.33-1.42-2.76-4.15-5.57-3.51-4.88-4.3-5.64a1.4,1.4,0,0,0-2,.63c0,.24-.19.47-.26.71-1,3.29-.84,3.37-1.15,3.38-4.83.25-2.56-.25-5.32.18-.7.11-.84,1.34-.35,2,3.75,5.5,3.75,7.53,5.31,6.77s-3.11-6.66-2.2-6.47a8.13,8.13,0,0,0,2.31,0c2.84-.18,1.65-.18,3.16-3.91,1.27,1.21,2.71,4,4.48,5.57A1.14,1.14,0,0,0,102.58,107.61Zm-8.9-11.78a1.31,1.31,0,0,0,2.45-.41c-.8-2.69-3.31-5.52-5.74-8.3-.43-.49-1.51-.49-1.78,0C88,88.39,88.61,88.25,93.68,95.83Zm-.86,2.09c.45-.53,0-2.49-1.34-2.06s-1.3.56-3.57,2.07c-.46.3-.19.19-1.32-1.57a44.06,44.06,0,0,0-3.33-4.61c-1-1-2.11-.44-2.11.23,0,1.13.51,1.14,1.61,2.86,4.76,7.46,2.75,8,8.81,4.12A4.31,4.31,0,0,0,92.82,97.92Zm-8.77,4.76a1.79,1.79,0,0,0,.32-1.76c-.37-1.38-1.42-.82-1.62-.8-1.22.1-.66,1.07-2.46,2.46a3.43,3.43,0,0,1-4.41-2.17c-.64-1.68.49-3.85,1-3.48a1.12,1.12,0,0,0,1.54-.62c.28-1.46-1.45-2.91-3.53-1.48s-2.69,6.32.11,9.16a5.58,5.58,0,0,0,8,.1C83.43,103.66,83.68,103.12,84.05,102.68Z" fill="#fff59e"></path><path d="M143.94,113.71c-.69.12-7.33-.92-8.51-1-7.57-.48-9.94.17-21.6,2.26-4.7.85-7.73,1.37-12.69,3.94-3.6,1.87-6,3.13-7.63,5.25a5.11,5.11,0,0,0-.23,6c2.74,4.09,9.59,3.77,9.86,4.46,1.12,2.78-1,3.12-3.46,3.5-.4.06-.83-1.51-2.12-1.1-1.85.6-2.42.17-3.07.48-1.58.76-2.93,1.3-2.63,3.33.18,1.23,1.19,1.21,1,1.71a3.17,3.17,0,0,0,.34,2.88c.13.24.77.61.68.71-.47.58-.25,1.22-.18,1.85.16,1.4,1.23,1.33,1.21,1.85-.06,1.43.78,1.88,2.09,2.57s2.86,0,3.64.31c1.29.49,7.2.4,8.73-1.58a2.71,2.71,0,0,1,2.36-1.35c.4,0,.22.15.59,1.47.27.93.72,1.21,3.93,1,5.66-.36,4.75,1.92,4.81-11.25a8.91,8.91,0,0,0-.71-3.42c-.43-1.06-1.67-.66-5.67-.74-1.08,0-2.38-.15-2.76.94-.5,1.45-.43,1.47-.72,1.53-1.2.26-2.65-.08-2.76-1.32a6.12,6.12,0,0,0-1.09-3.53c-.38-.57-.69-.23,6.77-1.84,2.81-.6,4-1.29,6.83-.11,6.63,2.76,8.46,3.91,14,4.46.21,0,.28.09.27.3-.76,10.37-.21,9.71-.78,10-28,15.45-34.26,21.39-37.63,18.07-2.89-2.85-6.86-10.17-7.29-10.94-23.54-41-28.36-48.85-38.28-66.72C49,83.74,48.94,84.11,49.72,84c1.11-.15,1.54,1,3.55.9,1,0,1.52-.14,5.4-1.66,1-.41,1.19-1.1,2.33-1.39,1.93-.5,3.88-2.57,3-4.36-.29-.62.84-.82.2-2.68a1.79,1.79,0,0,0-.77-1.19c-.31-.16,1.3-1.58-.62-3.73-.33-.37,1.12-1.9-.71-3.35a4.56,4.56,0,0,0-4-.18c-1.43.61-2.81.07-3.12,2,0,.16,0,.27-.21.32-7.14,2-2.48-2.55-6.48-5.8a2.4,2.4,0,0,0-2.24-.48c-1.44.43-.36,1.87.2,4.34.39,1.73-.49,2.55.38,4.9.68,1.82-.38,2.28-2.19,3-.37.16-.46.11-.65-.23-7.18-12.84-5.91-10.06-6.37-11.11-.91-2.08-5.19-6.43,1.81-11.59,3-2.2,26.95-14.33,28-14.84.45-.23.34-.49,1.22,2.49.23.8-2.51,1.18-3.13,4.33-.7,3.57,2.36,6.83,6.53,6.18.93-.15,0,.78,1.47,1,1.18.21.39,1,1.12,1.11.9.08.33,1.17,1.08,1.16.17,0,0,0,7,7.7,3.77,4.12,3.86,4,6,8.76a2.87,2.87,0,0,1,.21.92c0,.1-13.15,7.89-13.5,7.27s-1-1.48-1.38-2.25-.92-1.8-1.4-2.69c-.26-.5.34,0,2.24-.75.8-.31,1.5-.76.86-1.34-.93-.84-1.75-.47-4.57-3.06-3-2.74-4.84-4.8-4.92-3.33C65.74,69.61,71.74,80,71.75,80c.29.57-14.19,8.24-15.2,9.71-.35.51,3.81,7,8,13.64,4,6.25,7,12,14.76,24.7,1.06,1.73-.22.91,36.51-19.59,3.44-1.92,3.18-2,3.75-1.94.31,0,.69-.13.94,0s.25.55.45.77c1.82,2,2.85.81,2.94,1.28.13.76.78,1.06,1.31,1.47a2,2,0,0,0,1.66.26c.61-.1.85,1.19,2.56.74s1.72-.35,3.09-2c1-1.17,1.21-.52,2.59-2.18a24.25,24.25,0,0,0,2.72-3.37c.17-.27.24-.29.83.94C140,107.14,143.93,113.69,143.94,113.71ZM52.06,51.61c1.53,2,1.36.19,1.26-3.81,0-.61-.58-.66-1,0-.79,1.25-1.07,1.8-2,3.17-.15.22-.11.64.45.55C51.18,51.48,51.7,51.13,52.06,51.61Zm-3.61,2.25c.61.09.76-.45.74-.9S48.12,50.52,47,51.09c-.28.14-.37.71-.31.94A2.28,2.28,0,0,0,48.45,53.86Zm-2.18,1.25c.61.08.76-.46.74-.9s-1.07-2.44-2.21-1.88c-.29.14-.36.71-.31,1A2.3,2.3,0,0,0,46.27,55.11ZM44.7,56a.61.61,0,0,0-1.21-.18C43.34,56.73,44.62,57.14,44.7,56ZM44,54.1c0-.66-1.33-1-1.35-.05C42.6,54.81,43.93,55.1,44,54.1Zm-2.22,3.46c-.06.36,1,1,1-.81,0-1.14-.9-.56-1-1.09a2.31,2.31,0,0,0-.22-.72,1,1,0,0,0-1.42-.26A1.5,1.5,0,0,0,39.91,56c.06.07.23.22.32.08s.25-.59.41-.53a.54.54,0,0,1,.32.63c0,.26-.2.37-.06.54s.54-.22.76.06S41.81,57.2,41.75,57.56Zm-2.21,1.38c.61.09.76-.45.74-.9s-1.07-2.43-2.21-1.87c-.29.14-.37.71-.31.95A2.29,2.29,0,0,0,39.54,58.94Z" fill="#d8e9ff"></path><path d="M134.67,149c0,1.66.35,1.76-.18,2.05-.8.42-21.28,12.19-25.75,14.63-15.59,8.52-11.2,9.45-27.87-18.64-1.41-2.36-19.36-35-23.88-42.1C46.68,88.63,40.64,76,36.89,70.17c-.07,0-3-4.7-3-5.76a.29.29,0,0,0,0-.13c-.92-1.48.28-4.72.54-4.12,1.55,3.55,1.51,3.36,8.16,14.64.75,1.27,5.7,10.42,9,16.14,5.06,8.79,5.93,8.69,18.82,31.9C71.42,124.78,77,134,82.6,144c3.3,5.85,6.45,12.42,9.2,16.72,1.1,1.71,2,2.9,2.84,4,2.57,3.43,4.24,3,5.85,2.53,3-.91,10-4.94,33.88-18.47C134.59,148.66,134.66,148.69,134.67,149Z" fill="#d9d9d9"></path><path d="M108.7,52.55s23,38.29,22.67,38.78c-.77,1.22-2.28,2-3,1-2.18-3-.42-1.31-11.5-20.37-7.93-13.64-7.3-12.55-8.22-12.14s-15.76,8.69-15.78,8.7c-.74.44,0-1-4.52-6.86-1.77-2.3-5.15-5.69-8-8.85-.91-1-1.5-1.89-2.26-2.67s-.31-.86-.77-1c-.63-.2-.51-.46-.57-1s-.68-.1-.77-.38-.24-.38-.14-.67A10.94,10.94,0,0,0,76.39,45a5.15,5.15,0,0,0-3.7-5.69c-2.27-.56-2.69.53-3-.55-.14-.42-.54-1.8-.54-1.85,0-.92-2,0,6.19-4.19,18.56-9.52,16.47-9.64,27.77,9.63.14.24.14.37-.13.56-3.54,2.46-2.69-.62-5.57-2-1.64-.75-2.26-1.85-3.67-3.66s-4.06,2.16-.89,5.17c1.14,1.09,1.8,1.3,1.92,2.48s-1.48,2.28-2.33,3c-.16.12-.66-.18-1.06-.26-1.32-.26-1.19.84-3.21,2a7.12,7.12,0,0,0-1.47,2.11A2.38,2.38,0,0,0,88.55,55c.69.07-.27,1.12,2.06,2.54.26.16,1,.1,1,.33a2.79,2.79,0,0,0,2.54,2.4c.44,0,.48,1.34,2.36,1.33a4.09,4.09,0,0,0,3.29-1.13c1.2-.93,1.44-.36,2.52-1.13,4.17-3,4.57-2.71,5.37-6.39a1.43,1.43,0,0,1,.12-.31C108.13,51.93,108.32,51.91,108.7,52.55ZM92.09,31.14c.85-.45.24-.84-.62-2.05-.3-.43,0-.49-2.83,1-1.19.62-1.65.77-1.45,1.17a3.62,3.62,0,0,0,1.5,1.59C89.35,32.56,92.07,31.15,92.09,31.14ZM85.49,35c.94,0,1-.63.45-1.37-1.26-1.81-1.27-2-1.9-1.93s-.51,1.14-.17,1.63C85,34.9,85.17,35,85.49,35ZM84,35.85c.6-.38-.75-2.64-1.61-2.2s.18,1.68.84,2.25A.68.68,0,0,0,84,35.85Zm-.22.24c-.08-.06,0-.06-.13,0C83.68,36.15,83.65,36.14,83.73,36.09Zm-2.61.12c0,.88,1.33,1.22,1.32.21S81.09,35.29,81.12,36.21Z" fill="#d8e9ff"></path><path d="M70.42,130.65c.4.52,8.35,15.33,8.33,15.31-9.55-4.84-13.62-3.91-19.08-11.52-2-2.85.26-6.82,4.66-6.24C71,129.08,69.08,128.89,70.42,130.65Z" fill="#ffc6a6"></path><path d="M56.1,106c10.91,17.81,8.67,14.76,7.06,13.74-7.42-4.71-6.25-2.34-14.26-9.09-2.28-1.93-4-3.91-4.06-7.15,0-1.22.61-1.86,1.52-2.69.47-.42,2.39-.38,3-.36a19.68,19.68,0,0,1,3.54.92C53.67,101.57,53.54,101.83,56.1,106Z" fill="#ffc6a6"></path><path d="M93.41,128.3c-.47-2.88-.18-4.55,5-7,6.94-3.3,10.07-5.26,12-5.35s10.95-2.1,12.17-2.1,13.23-.53,15.6-.17,6.83.7,6.83.7l-19.18-33.9s10.07,7.18,11.91,9,7.53,6.83,8.93,8.32,7.89,7.8,10.25,14.54c1.93,3.42,6.13,8.59,7.62,11.48a45.61,45.61,0,0,1,3.24,11.47s2.89,14.8,3.77,18,3.24,16.12,3.59,19.79,1,7.89,2.1,10.52,5.52,9.72,5.52,9.72c-5.71.23-49.88.71-51.15.61,0,0-2.81-6.92-3.51-7.79s-6.74-1.84-8.06-2.54-7.35-7.1-8.23-8.06-6.92-7-6.92-7l30.57-17.34s0-12.88-.09-14.81a75.85,75.85,0,0,1-7.53-2c-2.28-.88-9.11-3.59-10.6-3.33s-9.55,1.93-11.56,2.1S94.28,133.73,93.41,128.3Z" fill="#ffc6a6"></path><path d="M112.52,138.14s-.58-1.37,1.88-.94c0,0,2.95.06,3.74.06s2.23.35,2.32,1.38c.16,1.7,0,5.51,0,11.62,0,.54.06,1.32-1.66,1.38s-5,.13-5,.13-1.1.69-.78-1.54C113.5,146.84,112.82,141,112.52,138.14Z" fill="#bed4fc"></path><path d="M181.76,39.2c-4.73,2.7-3.81,6.43-10.35,5-2.93-.63-3.61-.73-5,.17a16.3,16.3,0,0,0-2.84,2.26c-1.76,2.09-1.75,2.6-2.58,2.86s-2.11-.3-3.12-.41c-14.06-1.59-10,8.82-16.49,8.26a14.5,14.5,0,0,0-3-.31c-2.85.6-4.46,1.84-5.09,4.77-.09.42.12.57.53.55,1,0,.45-2.59,3.57-3.64a4.5,4.5,0,0,1,3.12,0,5.68,5.68,0,0,0,6.5-3.37c3.85-7.8,11.72-3.79,14-4.24a2.69,2.69,0,0,0,2.05-1.34A13.53,13.53,0,0,1,166.82,46c1.31-.86,1.73-.81,3.42-.45,7.38,1.59,6.52-.31,11.84-4.67.34-.28,1.19.25,1.28-.82C183.43,39.16,182.4,38.84,181.76,39.2Z" fill="#000001"></path><path d="M82.75,100.12c-1.22.11-.66,1.07-2.46,2.46a3.43,3.43,0,0,1-4.41-2.17c-.64-1.68.49-3.85,1-3.48a1.12,1.12,0,0,0,1.54-.62c.28-1.46-1.45-2.91-3.53-1.48s-2.69,6.32.11,9.16a5.58,5.58,0,0,0,8,.1c.38-.43.63-1,1-1.41a1.79,1.79,0,0,0,.32-1.76C84,99.54,83,100.1,82.75,100.12Z" fill="#000001"></path><path d="M92.82,97.92c.45-.53,0-2.49-1.34-2.06s-1.3.56-3.57,2.07c-.46.3-.19.19-1.32-1.57a44.06,44.06,0,0,0-3.33-4.61c-1-1-2.11-.43-2.11.23,0,1.13.51,1.14,1.61,2.86,4.76,7.46,2.75,8,8.81,4.12A4.31,4.31,0,0,0,92.82,97.92Z" fill="#000001"></path><path d="M182.73,85.68c-1-.42-2.45-.34-4-.8-2.87-.82-4.17-2.54-7-2.25a28.15,28.15,0,0,1-4.65.55c-2.2-.17-2.38-.28-5.7-3-7.3-6-6.88-.37-16.54.7-2.83.31-3.43-.57-5.32-1.9-.73-.51-1.18.4-.65.89,1.69,1.57,3.2,2.6,5.74,2.34a36,36,0,0,0,4.86-.68c5-1.31,5-5,10.95-.19,3.9,3.1,4.57,4.1,10.83,2.93,3.75-.7,2.84,1.83,11,2.8,0,0,0,0,.15,0C183.19,87,183.6,86,182.73,85.68Z" fill="#000001"></path><path d="M96.86,99.21a1.4,1.4,0,0,0-2,.63c0,.24-.19.47-.26.71-1,3.29-.84,3.37-1.15,3.38-4.83.25-2.56-.25-5.32.18-.7.11-.84,1.34-.35,2,3.75,5.5,3.75,7.53,5.31,6.77s-3.11-6.66-2.2-6.47a8.13,8.13,0,0,0,2.31,0c2.84-.18,1.65-.18,3.16-3.91,1.27,1.21,2.71,4,4.48,5.57a1.14,1.14,0,0,0,1.75-.49c.1-1.39-.35-1.33-1.42-2.76C97,99.28,97.65,100,96.86,99.21Z" fill="#000001"></path><path d="M110.91,100.79c-1.1.08-1.22.3-3.93,2.31-.82.6-.48.94-2.28-1.3-.12-.15-.16-.27.09-.4.57-.29,3.51-2,3.69-3a1.84,1.84,0,0,0-.06-.47.86.86,0,0,0-1-.85c-1.62,0-4,3.19-4.6,2.39-.84-1.2-1.21-1.54-1-1.63a14.56,14.56,0,0,0,3-1.85c1.86-1.06,1.3-.8,1.29-1.72a1,1,0,0,0-1.24-.81A5.55,5.55,0,0,0,102.32,95c-1.9,1.15-2.72,1.37-2.94,2.68-.2,1.14.38,1.25,1,2.28a49.24,49.24,0,0,0,3.92,5.24c1.2,1.76,3.29.44,7.1-2.18C112.17,102.46,112,100.72,110.91,100.79Z" fill="#000001"></path><path d="M98.38,92.47C101,94,105,91.83,105,89.8c0-2.89-2.34-1.52-2.36-1.32a2.16,2.16,0,0,1-3,1.43,4,4,0,0,1-2.21-4.51c.21-.67.39-.26,1-.4,1.14-.24.94-1.61.45-2.13C95.54,79.37,91.82,88.69,98.38,92.47Z" fill="#000001"></path><path d="M108.77,88.33c.44-.3.27-.74.3-1.1.05-.61-.18-.69-1.24-2.68-.16-.3,1.1-.49,1.8-.2,1.87.79,3,1.59,4,1.3,1.43-.42.94-1.22.91-1.62a1,1,0,0,0-.9-.94c-1.31-.2-3.37-1.77-5.25-1.25-.7.2.19-.18,1-5,.22-1.38-2.22-1.68-2.52,0a20.59,20.59,0,0,1-1.06,4.31l-.21-.26c-1.64-2.84-1.27-2.63-2.64-2.51a.57.57,0,0,0-.53.48c-.23.81,0,1.33,1,3.14C106.73,87.85,107,89.58,108.77,88.33Z" fill="#000001"></path><path d="M65.48,150c-3.73,5.74-1.72,3.78-4.27,13.37-2.84,10.69-5.64,10.78-5.32,12.46.17.84,1,.9,1.17-.07a9.24,9.24,0,0,1,1.2-2.06c4.14-5.76,5.67-18,5.86-18.78a19.31,19.31,0,0,1,2.33-4.56C66.73,149.83,66,149.28,65.48,150Z" fill="#000001"></path><path d="M29.52,87.76c8.9-1.18,6.91,0,8.73.92.47.23.9-.28.51-.84-2.51-3.55-9-.53-12.86-1.28-4.24-.82-4.18-2.62-8.4-3a.79.79,0,0,0-.86.61c-.07.5,1.42.77,2.11.89C21.68,85.64,23.14,88.6,29.52,87.76Z" fill="#000001"></path><path d="M105.92,25.11c-.49,1.65-1.64,3.8-1.57,4.55s1,.93,1.14.06,3-5.53,1.46-7.31c-1.26-1.47-1.9-1.77-1.88-2.7.06-2.58.17-2.24,2.28-7.92.54-1.44-.85-1.56-1.29-.52C100.33,24.92,107.23,20.71,105.92,25.11Z" fill="#000001"></path><path d="M115.81,147.88c-1-.16-1.38,1.85-.07,1.88A.94.94,0,1,0,115.81,147.88Z" fill="#000001"></path><path d="M119.88,47.67a4.11,4.11,0,0,1-.21-2.35c.19-1.62,1.17-2.07,2.83-3.09.32-.2,7.85-2.66,7.12-6.31-.94-4.74-3.72-8.27,5.44-10.62,1.54-.39,3.45-1.31,3.72-2.31.48-1.79,1.62-5.25,3.4-6.17,1.07-.55-.68-3.11-3.14,1.33-2.64,4.75.19,4.11-5.41,5.94-2.39.78-3.34,1.08-4.31,2-2.43,2.29-3.21,2.77-1.11,10.12.15.52-.29,1.07-.7,1.48-3.41,3.44-10.26,3-9,9.57C118.91,49.34,120.19,48.31,119.88,47.67Z" fill="#000001"></path><path d="M94.22,26.18s0,0,0,.06S94.25,26.22,94.22,26.18Z" fill="#000001"></path><path d="M151.55,181.5c-1.62-1.31-1.9-.18-1.32.43a13.56,13.56,0,0,0,2.87,2c3,1.27,3.88,1.75,3.87.68C157.24,183.64,154.1,183.58,151.55,181.5Z" fill="#000001"></path><path d="M44.8,52.33c-.29.14-.36.71-.31,1a2.3,2.3,0,0,0,1.78,1.83c.61.08.76-.46.74-.9S45.94,51.77,44.8,52.33Zm1.09,1.86a1.33,1.33,0,0,1-.61-.77c0-.09-.09-.26,0-.32.29-.13.84.61.85.82S46.11,54.3,45.89,54.19Z" fill="#000001"></path><path d="M99.16,57.54c-.57-.78-1.2-.55-1.56-1.44-.27-.64-.43-1.52-1.15-1.88-1.24-.64-.86-1.75-1.8-2.8a14.1,14.1,0,0,1-1.27-1.52.32.32,0,0,0-.34-.18.33.33,0,0,0-.28.28c-.21,1.23,1.4,1.56,1.76,2.83.88,3.12,1.33.72,2.4,3.83.34,1,1.16.89,1.78,1.69.22.29,1,.73,1.27.24S99.4,57.87,99.16,57.54Z" fill="#000001"></path><path d="M88.61,87.15c-.62,1.24,0,1.11,5.07,8.68a1.31,1.31,0,0,0,2.45-.41c-.8-2.69-3.31-5.52-5.74-8.3C90,86.63,88.88,86.63,88.61,87.15Z" fill="#000001"></path><path d="M49.45,120.53c-1-.37-6.76.9-9.62,2.22a6.74,6.74,0,0,0-3.39,3.7c-2.23,3.66-6.44,1.32-11.62,3.78a1.29,1.29,0,0,0-.69,1.42c.07.35.95.67,1.08-.08.06-.29.09-.44,2.05-.87,6.08-1.36,8.26-.07,10.36-4.13a4.92,4.92,0,0,1,3-3c2.22-.91,6.84-2.15,8.62-2C50.1,121.62,50.23,120.8,49.45,120.53Z" fill="#000001"></path><path d="M47,51.09c-.28.14-.37.71-.31.94a2.28,2.28,0,0,0,1.78,1.83c.61.09.76-.45.74-.9S48.12,50.52,47,51.09Zm1.09,1.85a1.28,1.28,0,0,1-.61-.77c0-.09-.1-.26,0-.31.29-.14.84.61.85.82S48.28,53.06,48.07,52.94Z" fill="#000001"></path><path d="M88.69,32.84c.66-.28,3.38-1.69,3.4-1.7.85-.45.24-.84-.62-2.05-.3-.43,0-.49-2.83,1-1.18.62-1.65.77-1.45,1.17A3.62,3.62,0,0,0,88.69,32.84Z" fill="#000001"></path><path d="M38.07,56.17c-.29.14-.37.71-.31.95a2.29,2.29,0,0,0,1.78,1.82c.61.09.76-.45.74-.9S39.2,55.6,38.07,56.17Zm.48,1.09c0-.1-.1-.27,0-.32.29-.14.83.61.84.82C39.45,58.42,38.72,57.83,38.55,57.26Z" fill="#000001"></path><path d="M99.88,147.59c.59-2.2-.68-2.2-.32-3.39.72-2.32-.47-2.64-.07-4,.06-.19-.1-.65-.39-.41h.09c0,.08-1,.3-.35,2.39.49,1.66-.9,2.14.21,3.89a2.28,2.28,0,0,1,0,1.46c-.31,1.24.21,1.59.54,2.54.17.47.39,1.48,1,1.13s-.13-1-.15-1.31C100.36,148.83,99.56,148.76,99.88,147.59Z" fill="#000001"></path><path d="M81.12,36.21c0,.88,1.33,1.22,1.32.21S81.09,35.29,81.12,36.21Z" fill="#000001"></path><path d="M126.42,102.74c-.74-1.5-2-1.23-2.71-2.46-.13-.21-.31-.15-.49,0s-.09.32,0,.49c.49,1.36,1.88,1.14,2.5,2.42,1.07,2.17,1.75.79,2.78,2.42.66,1,.54.93,3.37,2.11.15-.14.37-.25.42-.41a.42.42,0,0,0-.3-.52h0c-1.07-.38-.87-.57-1.75-.77-.56-.12-.81-.51-1.12-1C128,103.23,127.24,104.42,126.42,102.74Z" fill="#000001"></path><path d="M43.49,55.87c-.08.87,1.13,1.24,1.21.09a.61.61,0,0,0-.51-.69A.6.6,0,0,0,43.49,55.87Z" fill="#000001"></path><path d="M41.71,55.66a2.31,2.31,0,0,0-.22-.72,1,1,0,0,0-1.42-.26A1.5,1.5,0,0,0,39.91,56c.06.07.23.22.32.08s.25-.59.41-.53a.54.54,0,0,1,.32.63c0,.26-.2.37-.06.54s.54-.22.76.06.15.41.09.77,1,1,1-.81C42.7,55.61,41.82,56.19,41.71,55.66Z" fill="#000001"></path><path d="M176.44,179.19l0,0C176.51,179.15,176.51,179.16,176.44,179.19Z" fill="#000001"></path><path d="M44,54.1c0-.66-1.33-1-1.35-.05C42.6,54.81,43.93,55.1,44,54.1Z" fill="#000001"></path><path d="M180.47,188.28c-5.7-10.08-3-5.31-5.58-22.38-1.13-7.54-5.3-23.58-6.71-31.5-1.08-6.09-1.93-9.55-4.08-12.73-10-14.78-6.41-9.52-9.83-15.94a34.37,34.37,0,0,0-8.82-9.94c-7.33-6-4-4.73-13-11.92-1.6-1.28-5.91-3.52-6.38-4.25-.68-1.06-4.42-8.41-9.06-15.73-21.33-33.7-19-43.1-33-36.8-12.56,5.66-15.34,8.34-15.66,7.39C67.8,32.93,67,30.68,66.24,28c-3.58-12.4-2.95-8.61-4.16-12.85-2.35-8.28.48-1.11-2.91-9.92-.16-.28-1.47-.37-1.18.7A38.07,38.07,0,0,1,60.2,13c1.32,5.93.62,1.6,4.2,13.28,1.27,4.14,1.43,5.18,2.69,8.79.43,1.2-22.48,10.81-30.39,17.15-2.05,1.64-5.14,8.85-4.23,12.08.87,3.07,19.74,35.37,19.82,35.56-.62,0-5.06-2-7.48.54-1.21,1.27-1.87,2.75-.91,5.62s2.81,4.44,4.56,6c7.27,6.28,9.73,5.91,12.71,8a24.93,24.93,0,0,0,4.44,2.48c.6.16,1.16,2,2.76,4.52a3.68,3.68,0,0,1,.21.45l-4.11-.55c-2.7-.37-5.83.79-6.62,3.36a5.72,5.72,0,0,0,.84,5.3,21.74,21.74,0,0,0,3.3,3.69c8.06,5.81,16.73,6.46,18.59,9.75,5,8.8,7.08,12.29,8.16,14.28a39.69,39.69,0,0,0,5.14,7.47,5.57,5.57,0,0,0,6,.94c5.42-2.18,4-3.13,5.4-1.92,4.74,4,7.66,9.37,11.89,12.67,5,3.92,9.61,3.54,10.36,4.26,1.11,1,1.08,1.43,3.51,7.57.31.8.4.84,1.16.43.38-.21.8.18-2-6.22-1-2.36-1.25-1.64,1.26-1.4.55,0,1.22-.28,1-.8s-.43-.62-3.2-1c-12.7-2-11.49-4.81-20-13.64a40.49,40.49,0,0,0-2.91-2.82c-.33-.29-.24-.31.17-.54C137.23,150.9,135,152.1,135,152.58c.24,12.26,2.91,15.5,10.84,23.51,2.12,2.15,8.49,4.84,9.12,4.79.37,0,.62-.18.68-.48.16-.87-.16-.72-2.39-1.71-3.33-1.48-6.18-2.5-11.09-8.47-3.81-4.63-3.76-5.75-5-9.48-.91-2.83-.62-5.4-.85-8.54-.94-12.78,1-16.13-.89-16.59-3.86-1-1.26,1-15.43-4.93-2.75-1.15-7.35,1.25-14.18,2.1-3.12.39-9.51-.64-11.22-3.2-2.15-3.19,1.19-6.59,1-5.19-.67,5.16,11.56,5.79,10.6-4.1-.07-.71-1.13-.84-1.06.08.35,4.93-2.61,7.08-6.84,6.22-2.38-.48-1.76-3.48-1.32-3.74,9.71-5.87,11.34-5.35,18.93-6.83,4.3-.83,4-1.06,3.5,0a6.9,6.9,0,0,0-.12,5.81c.17.35.82.38.87-.11.09-.83-1.19-2.46.33-5.78.54-1.2.33-.93,1.49-1.18.56-.11.37-.16.41,2,0,.82.86,1.08.86-.14,0-1.71-.16-2.11.44-2.18,8.3-1,12.64-.26,22.1.84,4.3.5,5.38,1.11,9.05,2.5a.6.6,0,1,0,.52-1.09,36.49,36.49,0,0,0-6.45-2.32c-5.82-1.2-1.46,1.56-8-8.4-.52-.78-13.16-23.63-13.18-23.63s2.58,1.63,4,2.75c5.15,4,6.24,5.78,8.44,8,4.07,4.07,8.37,6.75,10.93,10.5,5.21,7.62,2.24,5,8.06,13.33,8.4,12.07,5.15,8.93,9.63,26.87,8.17,32.7,4.35,33.46,8.07,40.82a79.64,79.64,0,0,0,5.27,8.89c.32.45,1.26.14,1.09-.45C182.74,191.57,183.46,193.57,180.47,188.28ZM105,46c1.13,2.08,2.5,4.41,2.69,4.76.43.77-.81.43-1.13,2.41a4.13,4.13,0,0,1-1.71,3.1c-3.32,2.43-3.35,2.47-4.15,2.65-1.84.4-2.1,1.86-4.1,1.81-1.39-.44-1-.29-1.29-.59.87-.53,2.08-.72,1.68-1.35-.27-.44-.74,0-1.65.35-1.26.46-2.3.17-2.75-1.07-.27-.73,1-1.05,1.65-1.54.27-.2.43-.43.31-.74s-.39-.16-.81,0c-1,.45-2.65,1.54-3.5.13s-.65-.74,2.52-3c.34-.24.22-1.09-1.4-.14a7.8,7.8,0,0,1-2.17,1.11,1.39,1.39,0,0,1-1.64-2c.73-1.13.75-1.33,1-1.5,2-1.17,2-2,2.66-1.88a5.78,5.78,0,0,1-1.72,1.89.39.39,0,0,0-.23.5v0c.21.64,1.4-.1,1.89-.79,1-1.46,2.76-1.73,4-3.73,1.32-2.18-.59-3.43-1.87-4.67-1-.94-1.46-2.76-.59-3.81.18-.23.29-.27,1.73,1.74s3,2.13,3.68,2.87a8.78,8.78,0,0,1,1,1.36c1,1.45,3.21.76,4.11-.16C103.81,43.18,103.72,43.64,105,46ZM68.92,41.2c.55,1.68.6,1.75.31,2-1.83,1.76.48,4.91,3.06,3.38,1-.62,1.45-4-.9-4.08-.49,0-.83-.17-.9-.74-.09-.88-.77-1.43,0-1.65,2.23-.59,5,1.17,5.2,4.3-.58,2.62-.89,3-.29,4,.22.36,0,.46-1.14,1.46-.26.23-.38.12-1.27-.68-.33-.3-2,.09-3.32-.23a4.27,4.27,0,0,1-1.29-8C68.78,40.81,68.79,40.81,68.92,41.2ZM71,44c-.08-.88,1.09-.46,1.07.71,0,1.6-1.37,1.59-2.23.83-.36-.32-.24-.76-.21-1.16,0,0,.2-.12.3-.12s.15.11.22.18A.51.51,0,0,0,71,44ZM93.18,69.67c3.82-2,13.56-7.78,14.59-8.39,2-1.18,1.5.56,7.23,9.73.45.73,11.3,19.95,10.77,19.84-2.14-.47-2.38-1-4.71-2.77-.88-.68-2.17.39-1.87,2.12.87,5,7.81,2.43,3.18,8.51-.13.17-.78,0-1.24,0-1.23.13-.91,1.25-2.47,2.63a4.7,4.7,0,0,0-.82,3.59c.39,1.22,3.78-1-23.28,14.19-8.69,4.88-7.61,4.79-13.87,8-.73.37-.58,0-3.18-4.5C55.39,84.17,55.26,92.18,62.63,87.35c4.73-3.1,8.55-5.55,25.95-15.2.9-.5.18,5-2.23,7.17-.31.29-.09,0-.77-1-.28-.44-.74.22-.6.44.84,1.34-1.42,1.64-.71,3.21.21.47-.2,1.86,1.14,1.67a1.48,1.48,0,0,1,1.26.33c1,.8,6.16-3.36,6.56-10.71C93.37,70.79,92.38,70.09,93.18,69.67Zm-23.1,2.71c2.89,1.82.12-.95,4.47,6.19-2,1.2-2,1.32-2.14,1,0,0-1.42-2.61-2.34-4.52-1.62-3.37-3.36-8.83-3.29-10,.51.31,4.46,4.74,7.38,5.94a1.1,1.1,0,0,1,.42.24,8.19,8.19,0,0,1-4.36.43C69.76,71.69,69.68,72.13,70.08,72.38Zm18.72,9.3c-.46.45-1.48,1.63-2,1.24-.81-.56-1.53,0-1.43-.43.17-.82-.75-.9-.15-1.31,1.88-1.27,2.14-1.3,3.18-3a11.28,11.28,0,0,0,.14-10.52c-2.83-5.92-12.44-14.39-11.8-14.88,2.39-1.87-.1-2.44,7.67,5.64,4.47,4.65,7.31,8.19,8,14.17A11.37,11.37,0,0,1,88.8,81.68ZM76.18,52.17c-.23.14-.36,0-.48-.15S75.52,52,77,50.67c.27-.24.12-.27.66.14A4.63,4.63,0,0,1,76.18,52.17Zm-1-1.09c-.3.16-.36-.09-.48-.23s-.22,0,1.28-1.34c.23-.2.25-.09.53.21A3.41,3.41,0,0,1,75.2,51.08Zm-12,68.66c-7.42-4.71-6.25-2.34-14.26-9.09-2.28-1.93-4-3.91-4.06-7.15,0-1.22.61-1.86,1.52-2.69.47-.42,2.39-.38,3-.36a19.68,19.68,0,0,1,3.54.92c.76.2.63.46,3.19,4.63C67,123.8,64.77,120.76,63.16,119.74Zm-3.49,14.7c-2-2.85.26-6.82,4.66-6.24,6.67.88,4.74.69,6.09,2.45.4.52,8.35,15.33,8.33,15.31C69.2,141.12,65.13,142.05,59.67,134.44ZM134.49,151c-.79.42-21.28,12.19-25.75,14.63-15.59,8.52-11.2,9.45-27.87-18.64-1.41-2.36-19.36-35-23.88-42.1C46.68,88.63,40.64,76,36.89,70.17c-.07,0-3-4.7-3-5.76a.29.29,0,0,0,0-.13c-.92-1.48.28-4.72.54-4.12,1.55,3.55,1.51,3.36,8.16,14.64.75,1.27,5.7,10.42,9,16.14,5.06,8.79,5.93,8.69,18.82,31.9,1.05,1.89,6.12,10.74,11.58,20.46,6.32,11.24,8.14,15.35,12.71,21.43,2.57,3.43,4.24,3,5.85,2.53,3-.91,10-4.94,33.88-18.47.22-.13.29-.1.3.18C134.7,150.63,135,150.74,134.49,151ZM45.42,75.3c.15,0,3.49-1.55,2.18-3.75-1.05-1.77.24-2.82-.57-5.57s-1-2.67-.4-2.71c1-.06,2.59,1,2.76,3.57C49.73,72,54.64,69.6,56,69.17c.61-.19,3.75-.35,3.1-1.29-.27-.39-.55-.1-.85,0a6.28,6.28,0,0,1-2.21.19c0-.29.41-.41.54-.42A7.65,7.65,0,0,0,59.1,67c3.8-.48,3.39,1.83,2.56,2.48-1.18,1-3.69,1.69-3.29,2.26.16.24.3.32,2-.39,1.2-.5,1.67-1.2,2.08-.42s.68,1.8-.29,2.45c-1.34.9-2.25,1.16-2,1.64.49,1,2.61-1.57,3.17-.11,1,2.76-2.56,2.92-2.07,3.83s2.08-1.34,2.12-.37A3,3,0,0,1,61,80.85c-1.91.47-1.48,1.14-2.87,1.61-.91.32-3.43,1.5-4.95,1.5-1.91,0-2.36-1.4-4.26-.74-.42.14-.07.28-4.21-7.1-.29-.51-.19-.34.68-.82C45.45,75.32,45.44,75.33,45.42,75.3Zm58.81,60.24c-.15-1.06-.41-1.25,0-1.28,1.77-.11,1.85-.19,2,.09.72,1.47,1.23,1.76,1.21,3.21,0,2.36,1.9,3,4.19,2.56.8-.16.78-.16.83.67,0,0,.38,5,.1,5,0,2.93.1,2.93-.23,3a11.12,11.12,0,0,1-1.14.15c-2.46,0-2.07,2.35-5,2.79-5.93.89-5-.42-7.1,0-1.32.26-3.06-.3-3.35-1.64,1.39.17,2.13.39,2.16-.22,0-.9-3.55.06-3.46-2.66.05-1.37,1.83-.36,2.74-.82.28-.13.54-.68-.69-.78-1.44-.11-2.79-.21-2.88-1.65-.13-1.86.16-1,3.73-1.32a.3.3,0,0,0,.2-.55c-1-.66-3,.14-4.25-.68a1.38,1.38,0,0,1,0-2.3c1.39-.83,1.66-.85,2.06-.84,1.84,0,1.86-.54,2.86-.32.64.14-1.66.89-2.35.84-.5,0-.71.61-.13.76a3.69,3.69,0,0,0,2.14-.31C98.81,138.82,104.79,139.47,104.23,135.54Zm34.47-31.07c1.28,2.67,5.23,9.22,5.24,9.24-.69.12-7.33-.92-8.51-1-7.57-.48-9.94.17-21.6,2.26-4.7.85-7.73,1.37-12.69,3.94-3.6,1.87-6,3.13-7.63,5.25a5.11,5.11,0,0,0-.23,6c2.74,4.09,9.59,3.77,9.86,4.46,1.12,2.78-1,3.12-3.46,3.5-.4.06-.83-1.51-2.12-1.1-1.85.6-2.42.17-3.07.48-1.58.76-2.93,1.3-2.63,3.33.18,1.23,1.19,1.21,1,1.71a3.17,3.17,0,0,0,.34,2.88c.13.24.77.61.68.71-.47.58-.25,1.22-.18,1.85.16,1.4,1.23,1.33,1.21,1.85-.06,1.43.78,1.88,2.09,2.57s2.86,0,3.64.31c1.29.49,7.2.4,8.73-1.58a2.71,2.71,0,0,1,2.36-1.35c.4,0,.22.15.59,1.47.27.93.72,1.21,3.93,1,5.66-.36,4.75,1.92,4.81-11.25a8.91,8.91,0,0,0-.71-3.42c-.43-1.06-1.67-.66-5.67-.74-1.08,0-2.38-.15-2.76.94-.5,1.45-.43,1.47-.72,1.53-1.2.26-2.65-.08-2.76-1.32a6.12,6.12,0,0,0-1.09-3.53c-.38-.57-.69-.23,6.77-1.84,2.81-.6,4-1.29,6.83-.11,6.63,2.76,8.46,3.91,14,4.46.21,0,.28.09.27.3-.76,10.37-.21,9.71-.78,10-28,15.45-34.26,21.39-37.63,18.07-2.89-2.85-6.86-10.17-7.29-10.94-8.51-15.81-14.8-26.72-20-35.75-2.47-4.28-4.81-8.56-6.84-12-4.24-7.08-7.69-12.48-11.41-19C49,83.74,48.94,84.11,49.72,84c1.11-.15,1.54,1,3.55.9,1,0,1.52-.14,5.4-1.66,1-.41,1.19-1.1,2.33-1.39,1.93-.5,3.88-2.57,3-4.36-.29-.62.84-.82.2-2.68a1.79,1.79,0,0,0-.77-1.19c-.31-.16,1.3-1.58-.62-3.73-.33-.37,1.12-1.9-.71-3.35a4.56,4.56,0,0,0-4-.18c-1.43.61-2.81.07-3.12,2,0,.16,0,.27-.21.32-7.14,2-2.48-2.55-6.48-5.8a2.4,2.4,0,0,0-2.24-.48c-1.44.43-.36,1.87.2,4.34.39,1.73-.49,2.55.38,4.9.68,1.82-.38,2.28-2.19,3-.37.16-.46.11-.65-.23-7.18-12.84-5.91-10.06-6.37-11.11-.91-2.08-5.19-6.43,1.81-11.59,3-2.2,26.95-14.33,28-14.84.45-.23.34-.49,1.22,2.49.23.8-2.51,1.18-3.13,4.33-.7,3.57,2.36,6.83,6.53,6.18.93-.15,0,.78,1.47,1,1.18.21.39,1,1.12,1.11.9.08.33,1.17,1.08,1.16.17,0,0,0,7,7.7,3.77,4.12,3.86,4,6,8.76a2.87,2.87,0,0,1,.21.92c0,.1-13.15,7.89-13.5,7.27s-1-1.48-1.38-2.25-.92-1.8-1.4-2.69c-.26-.5.34,0,2.24-.75.8-.31,1.5-.76.86-1.34-.93-.84-1.75-.47-4.57-3.06-3-2.74-4.84-4.8-4.92-3.33C65.74,69.61,71.74,80,71.75,80c.29.57-14.19,8.24-15.2,9.71-.35.51,3.81,7,8,13.64,4,6.25,7,12,14.76,24.7,1.06,1.73-.22.91,36.51-19.59,3.44-1.92,3.18-2,3.75-1.94.31,0,.69-.13.94,0s.25.55.45.77c1.82,2,2.85.81,2.94,1.28.13.76.78,1.06,1.31,1.47a2,2,0,0,0,1.66.26c.61-.1.85,1.19,2.56.74s1.72-.35,3.09-2c1-1.17,1.21-.52,2.59-2.18a24.25,24.25,0,0,0,2.72-3.37C138,103.26,138.11,103.24,138.7,104.47Zm-18.59,45.76c.2,1.3-2.28.92-2.29.89-.82.07-4.52.5-4.41,0,.38-1.92.08-8.25-.11-11.07-.18-2.54-.42-2.36.11-2.37a8.09,8.09,0,0,1,1.63.13c2.58.45,4.41-.77,4.74.74a8.26,8.26,0,0,1,.33,2.17C120,144.33,120.11,150.22,120.11,150.23Zm16.1-50.07c1.37,2.41,2.19,1.74-2.29,6.75-.64.72-1.4.49-2.29,1.81a3,3,0,0,1-3.35,1.35c-.71-.22,1.85-1.06,1.2-1.81-.48-.55-.88.67-2.71,1.21a1.85,1.85,0,0,1-1.81-1c-.22-.49.1-.59,1.18-1.71.69-.71.24-1.31-.51-.73-1.86,1.44-2.53,2.34-4,.24-.27-.37.31-.34,2.34-2.74.27-.33,0-.76-.37-.52-1.68,1.07-1.49,1.45-2.71,2.21A1.41,1.41,0,0,1,118.6,104c.46-1.5.46-1.69.92-2.14,1.18-1.14,1.25-2.17,1.87-2.21a5,5,0,0,1-1.21,2.27c-.35.29,0,1.27.94.24s.64-1.41,1.42-2.22c2.11-2.22,2.1-3.11,2.39-4.07-.61-3.64-4.12-2.15-4.75-5.59a2.61,2.61,0,0,1,.07-1.08c.09-.41.21-.41.52-.16,5.68,4.52,3.49,1.23,7.25,4.27,1.36,1.1,2.61.13,3.74-.85C132.28,92,134.39,96.94,136.21,100.16Zm-4.84-8.83c-.77,1.22-2.28,2-3,1-2.18-3-.42-1.31-11.5-20.37-7.93-13.64-7.3-12.55-8.22-12.14s-15.76,8.69-15.78,8.7c-.74.44,0-1-4.52-6.86-1.77-2.3-5.15-5.69-8-8.85-.91-1-1.5-1.89-2.26-2.67s-.31-.86-.77-1c-.63-.2-.51-.46-.57-1s-.68-.1-.77-.38-.24-.38-.14-.67A10.94,10.94,0,0,0,76.39,45a5.15,5.15,0,0,0-3.7-5.69c-2.27-.56-2.69.53-3-.55-.14-.42-.54-1.8-.54-1.85,0-.92-2,0,6.19-4.19,18.56-9.52,16.47-9.64,27.77,9.63.14.24.14.37-.13.56-3.54,2.46-2.69-.62-5.57-2-1.64-.75-2.26-1.85-3.67-3.66s-4.06,2.16-.89,5.17c1.14,1.09,1.8,1.3,1.92,2.48s-1.48,2.28-2.33,3c-.16.12-.66-.18-1.06-.26-1.32-.26-1.19.84-3.21,2a7.12,7.12,0,0,0-1.47,2.11A2.38,2.38,0,0,0,88.55,55c.69.07-.27,1.12,2.06,2.54.26.16,1,.1,1,.33a2.79,2.79,0,0,0,2.54,2.4c.44,0,.48,1.34,2.36,1.33a4.09,4.09,0,0,0,3.29-1.13c1.2-.93,1.44-.36,2.52-1.13,4.17-3,4.57-2.71,5.37-6.39a1.43,1.43,0,0,1,.12-.31c.37-.66.57-.68.94,0C108.71,52.57,131.68,90.84,131.37,91.33Z" fill="#000001"></path><path d="M52.3,47.83c-.8,1.25-1.07,1.8-2,3.17-.15.22-.11.64.45.55.4-.07.92-.42,1.28.06,1.53,2,1.36.19,1.26-3.81C53.3,47.19,52.74,47.14,52.3,47.83Z" fill="#000001"></path><path d="M125.91,124c.49.16.69-.16.82-.68.67-2.61,1.61-5.54.46-7.49a.55.55,0,0,0-.68-.14.56.56,0,0,0-.12.68C127.63,118.34,125.16,123.78,125.91,124Z" fill="#000001"></path><path d="M82.34,33.65c-.78.4.18,1.68.84,2.25a.67.67,0,0,0,.77,0C84.55,35.47,83.2,33.21,82.34,33.65Z" fill="#000001"></path><path d="M84,31.72c-.59.11-.51,1.14-.17,1.63C85,34.9,85.17,35,85.49,35c.94,0,1-.63.45-1.37C84.68,31.84,84.67,31.6,84,31.72Z" fill="#000001"></path><path d="M83.6,36.09c.08.06.05,0,.13,0C83.65,36,83.68,36,83.6,36.09Z" fill="#000001"></path><path d="M57.31,74.06c.88.87.06,1.7.75,2.66s.92,1,.92,3.7c0,.74.83.75.89.06s-.1-1.35-.07-1.76c.05-.64,0-1-.88-2.21-.64-.87.2-1.73-.69-2.62-1.47-1.48-.58-2.55-1.77-3.75-.34-.35-1-.07-.56.45C56.69,71.64,56,72.77,57.31,74.06Z" fill="#000001"></path></g></g></svg>